# AST/ASF file generated using VICON BodyLanguage
# -----------------------------------------------
:version 1.10
:name VICON
:units
  mass 1.0
  length 0.45
  angle deg
:documentation
   .ast/.asf automatically generated from VICON data using
   VICON BodyBuilder and BodyLanguage model FoxedUp or BRILLIANT.MOD
:root
   order TX TY TZ RX RY RZ
   axis XYZ
   position 0 0 0  
   orientation 0 0 0 
:bonedata
  begin
     id 1 
     name lhipjoint
     direction 0.661853 -0.702389 0.261917 
     length 2.64193 
     axis 0 0 0  XYZ
  end
  begin
     id 2 
     name lfemur
     direction 0.34202 -0.939693 0  
     length 7.01722  
     axis 0 0 20  XYZ
    dof rx ry rz
    limits (-160.0 20.0)
           (-70.0 70.0)
           (-60.0 70.0)
  end
  begin
     id 3 
     name ltibia
     direction 0.34202 -0.939693 0   
     length 8.25008   
     axis 0 0 20   XYZ
    dof rx
    limits (-10.0 170.0)
  end
  begin
     id 4 
     name lfoot
     direction 0.0709916 -0.195048 0.978221   
     length 2.31941   
     axis -90 7.62852e-016 20   XYZ
    dof rx rz
    limits (-45.0 90.0)
           (-70.0 20.0)
  end
  begin
     id 5 
     name ltoes
     direction 1.53586e-011 -4.22017e-011 1   
     length 1.16486   
     axis -90 7.62852e-016 20   XYZ
    dof rx
    limits (-90.0 20.0)
  end
  begin
     id 6 
     name rhipjoint
     direction -0.638185 -0.721362 0.268992   
     length 2.57244  
     axis 0 0 0  XYZ 
  end
  begin
     id 7 
     name rfemur
     direction -0.34202 -0.939693 0   
     length 7.07017   
     axis 0 0 -20   XYZ
    dof rx ry rz
    limits (-160.0 20.0)
           (-70.0 70.0)
           (-70.0 60.0)
  end
  begin
     id 8 
     name rtibia
     direction -0.34202 -0.939693 0   
     length 8.20386   
     axis 0 0 -20   XYZ
    dof rx
    limits (-10.0 170.0)
 end
 begin
     id 9 
     name rfoot
     direction -0.0822429 -0.225961 0.970658   
     length 2.32215  
     axis -90 -7.62852e-016 -20   XYZ
    dof rx rz
    limits (-45.0 90.0)
           (-20.0 70.0)
  end
  begin
     id 10 
     name rtoes
     direction -1.53597e-011 -4.21689e-011 1   
     length 1.16333   
     axis -90 -7.62852e-016 -20   XYZ
    dof rx
    limits (-90.0 20.0)
  end
  begin
     id 11 
     name lowerback
     direction -0.0131557 0.998589 -0.0514484   
     length 2.14993   
     axis 0 0 0   XYZ
    dof rx ry rz
    limits (-20.0 45.0)
           (-30.0 30.0)
           (-30.0 30.0)
  end
  begin
     id 12 
     name upperback
     direction -0.000776481 0.999993 0.00352685   
     length 2.15301   
     axis 0 0 0   XYZ
    dof rx ry rz
    limits (-20.0 45.0)
           (-30.0 30.0)
           (-30.0 30.0)
  end
  begin
     id 13 
     name thorax
     direction 0.00438186 0.999609 0.0276143   
     length 2.15424   
     axis 0 0 0   XYZ
    dof rx ry rz
    limits (-20.0 45.0)
           (-30.0 30.0)
           (-30.0 30.0)
  end
  begin
     id 14 
     name lowerneck
     direction -0.0488006 0.998094 0.0377807   
     length 1.90481   
     axis 0 0 0   XYZ
    dof rx ry rz
    limits (-20.0 45.0)
           (-30.0 30.0)
           (-30.0 30.0)
  end
  begin
     id 15 
     name upperneck
     direction 0.0443769 0.990702 -0.12861   
     length 1.91305   
     axis 0 0 0   XYZ
    dof rx ry rz
    limits (-20.0 45.0)
           (-30.0 30.0)
           (-30.0 30.0)
  end
  begin
     id 16
     name head
     direction 0.0165599 0.998647 -0.0492982  
     length 1.92369  
     axis 0 0 0   XYZ
    dof rx ry rz
    limits (-20.0 45.0)
           (-30.0 30.0)
           (-30.0 30.0)
  end
  begin
     id 17 
     name lclavicle
     direction 0.911936 0.410197 -0.0105506  
     length 3.52622  
     axis 0 0 0   XYZ
    dof ry rz
    limits (-20.0 10.0)
           (0.0 20.0)
  end
  begin
     id 18 
     name lhumerus
     direction 1 -4.48974e-011 -2.48591e-028   
     length 5.47651   
     axis 180 -30 -90   XYZ
    dof rx ry rz
    limits (-60.0 90.0)
           (-90.0 90.0)
           (-90.0 90.0)
  end
  begin
     id 19
     name lradius
     direction 1 -4.48938e-011 -4.40099e-027   
     length 3.09058   
     axis 180 -30 -90   XYZ
    dof rx
    limits (-10.0 170.0)
  end
  begin
     id 20
     name lwrist
     direction 1 -4.49042e-011 -2.99852e-027   
     length 1.54529   
     axis 1.95339e-015 90 90   XYZ
    dof ry
    limits (-180.0 0.0)
 end
  begin
     id 21 
     name lhand
     direction 1 -4.48815e-011 -5.98193e-027   
     length 0.771611   
     axis 3.82337e-015 90 90   XYZ
    dof rx rz
    limits (-90.0 90.0)
           (-45.0 45.0)
  end
  begin
     id 22 
     name lfingers
     direction 1 -4.49034e-011 -1.1993e-026   
     length 0.622093   
     axis 7.64668e-015 90 90   XYZ
    dof rx
    limits (0.0 90.0)
  end
  begin
     id 23
     name lthumb
     direction 0.707107 -6.34867e-011 0.707107   
     length 0.893204   
     axis -90 45 -1.62303e-014   XYZ
    dof rx rz
    limits (-45.0 45.0)
           (-45.0 45.0)
  end
  begin
     id 24 
     name rclavicle
     direction -0.93442 0.355634 -0.0195692   
     length 3.62463  
     axis 0 0 0   XYZ 
    dof ry rz
    limits (-10.0 20.0)
           (-20.0 0.0)
  end
  begin
     id 25 
     name rhumerus
     direction -1 -4.48957e-011 -1.19147e-027  
     length 5.14182   
     axis 180 30 90   XYZ
    dof rx ry rz
    limits (-90.0 60.0)
           (-90.0 90.0)
           (-90.0 90.0)
  end
  begin
     id 26 
     name rradius
     direction -1 -4.48952e-011 -3.81062e-027   
     length 3.35565   
     axis 180 30 90   XYZ
    dof rx
    limits (-10.0 170.0)
  end
  begin
     id 27 
     name rwrist
     direction -1 -4.48973e-011 -2.99621e-027   
     length 1.67782   
     axis 1.95339e-015 -90 -90   XYZ
    dof ry
    limits (-180.0 0.0)
  end
  begin
     id 28
     name rhand
     direction -1 -4.48895e-011 -5.98727e-027   
     length 0.801042   
     axis 3.82337e-015 -90 -90   XYZ
    dof rx rz
    limits (-90.0 90.0)
           (-45.0 45.0)
  end
  begin
     id 29
     name rfingers
     direction -1 -4.49065e-011 -1.19972e-026   
     length 0.645821   
     axis 7.64668e-015 -90 -90   XYZ
    dof rx
    limits (0.0 90.0)
  end
  begin
     id 30
     name rthumb
     direction -0.707107 -6.34957e-011 0.707107   
     length 0.927273   
     axis -90 -45 1.62303e-014   XYZ
    dof rx rz
    limits (-45.0 45.0)
           (-45.0 45.0)
  end
:hierarchy
  begin
    root lhipjoint rhipjoint lowerback
    lhipjoint lfemur
    lfemur ltibia
    ltibia lfoot
    lfoot ltoes
    rhipjoint rfemur
    rfemur rtibia
    rtibia rfoot
    rfoot rtoes
    lowerback upperback
    upperback thorax
    thorax lowerneck lclavicle rclavicle
    lowerneck upperneck
    upperneck head
    lclavicle lhumerus
    lhumerus lradius
    lradius lwrist
    lwrist lhand lthumb
    lhand lfingers
    rclavicle rhumerus
    rhumerus rradius
    rradius rwrist
    rwrist rhand rthumb
    rhand rfingers
  end

#!OML:ASF F:\VICON\USERDATA\INSTALL\rory3\rory3.ASF
:FULLY-SPECIFIED
:DEGREES
165
root 14.0713 17.6362 -11.4999 6.25108 -49.4566 -1.14434
lowerback 5.02571 0.734889 -1.75047
upperback 1.37365 0.899572 1.30724
thorax -1.45276 0.447282 2.27034
lowerneck -5.97929 -3.3324 -5.50846
upperneck 19.8453 -4.50352 2.33933
head 7.23554 -2.43561 1.30756
rclavicle -1.65985e-014 -1.35174e-014
rhumerus -36.0143 -5.86991 -79.4406
rradius 27.9184
rwrist -1.72313
rhand -10.6994 16.2934
rfingers 7.12502
rthumb 15.3101 -13.1199
lclavicle -1.65985e-014 -1.35174e-014
lhumerus -35.1434 -11.4485 86.4826
lradius 37.3333
lwrist 14.0668
lhand -4.47288 28.5215
lfingers 7.12502
lthumb 21.2998 57.371
rfemur -30.8553 3.4516 20.4746
rtibia 26.0123
rfoot -10.9088 -13.6014
rtoes -10.4231
lfemur 9.05446 -6.30296 -24.9721
ltibia 10.6386
lfoot -22.1272 14.9747
ltoes -20.8456
166
root 13.9807 17.6322 -11.4602 6.35748 -49.3461 -1.36403
lowerback 5.03427 0.705513 -1.52451
upperback 1.38102 0.872838 1.40302
thorax -1.44677 0.433119 2.24351
lowerneck -6.04268 -3.34572 -5.50319
upperneck 20.0301 -4.51831 2.29935
head 7.30691 -2.4474 1.29051
rclavicle -4.07509e-014 -1.51076e-014
rhumerus -35.941 -6.00294 -79.3683
rradius 27.8943
rwrist -1.65079
rhand -10.7868 16.3102
rfingers 7.12502
rthumb 15.2259 -13.1096
lclavicle -4.07509e-014 -1.51076e-014
lhumerus -34.9274 -11.383 86.5823
lradius 37.6445
lwrist 13.9981
lhand -4.33714 28.5921
lfingers 7.12502
lthumb 21.4302 57.4269
rfemur -30.7177 3.14855 20.8272
rtibia 26.4826
rfoot -10.6686 -13.4482
rtoes -9.91697
lfemur 9.06083 -6.26868 -24.7315
ltibia 11.36
lfoot -22.3103 14.9436
ltoes -21.2773
167
root 13.8889 17.6272 -11.4202 6.42599 -49.2622 -1.52418
lowerback 5.03322 0.681196 -1.34878
upperback 1.37383 0.850283 1.47565
thorax -1.45106 0.421471 2.22083
lowerneck -6.09108 -3.33309 -5.43491
upperneck 20.2239 -4.51202 2.28238
head 7.3764 -2.44301 1.27251
rclavicle 1.04163e-013 -2.84262e-014
rhumerus -35.9121 -6.04519 -79.3601
rradius 27.924
rwrist -1.61486
rhand -10.8367 16.2778
rfingers 7.12502
rthumb 15.1778 -13.1455
lclavicle 1.04163e-013 -2.84262e-014
lhumerus -34.7554 -11.3426 86.6606
lradius 37.9442
lwrist 14.0453
lhand -4.36829 28.5356
lfingers 7.12502
lthumb 21.4003 57.3738
rfemur -30.5406 2.86143 21.1406
rtibia 26.8532
rfoot -10.4527 -13.6463
rtoes -10.2349
lfemur 9.12896 -6.18596 -24.517
ltibia 11.9819
lfoot -22.4223 14.8601
ltoes -22.0076
168
root 13.7943 17.6271 -11.377 6.56322 -49.2241 -1.78525
lowerback 5.00707 0.648034 -1.12061
upperback 1.36389 0.81922 1.58846
thorax -1.44369 0.405287 2.2108
lowerneck -6.09798 -3.29785 -5.4886
upperneck 20.3751 -4.47017 2.31977
head 7.42754 -2.4261 1.29644
rclavicle 8.99501e-015 2.24627e-014
rhumerus -35.8678 -5.9042 -79.3959
rradius 27.9173
rwrist -1.66634
rhand -10.9033 16.2477
rfingers 7.12502
rthumb 15.1136 -13.1805
lclavicle 8.99501e-015 2.24627e-014
lhumerus -34.6444 -11.2803 86.7939
lradius 38.247
lwrist 14.1692
lhand -4.5154 28.4155
lfingers 7.12502
lthumb 21.259 57.2697
rfemur -30.3437 2.54549 21.5471
rtibia 27.2313
rfoot -10.2182 -13.7557
rtoes -10.4711
lfemur 9.20093 -5.92266 -24.1997
ltibia 12.6342
lfoot -22.4393 14.7152
ltoes -23.0966
169
root 13.6989 17.6277 -11.3351 6.59411 -49.2365 -1.90279
lowerback 4.97124 0.618662 -0.992645
upperback 1.35671 0.787754 1.67603
thorax -1.42912 0.38908 2.23126
lowerneck -6.1318 -3.26274 -5.5728
upperneck 20.5494 -4.41461 2.31341
head 7.49059 -2.40876 1.31184
rclavicle 1.13804e-014 -1.63003e-014
rhumerus -35.8131 -5.83952 -79.3892
rradius 27.9043
rwrist -1.61855
rhand -10.8638 16.3025
rfingers 7.12502
rthumb 15.1517 -13.1228
lclavicle 1.13804e-014 -1.63003e-014
lhumerus -34.5398 -11.2329 86.9443
lradius 38.549
lwrist 14.3698
lhand -4.60064 28.3712
lfingers 7.12502
lthumb 21.1771 57.2345
rfemur -30.1417 2.22596 21.868
rtibia 27.5809
rfoot -10.0505 -13.4952
rtoes -10.2371
lfemur 9.23592 -5.62775 -23.9762
ltibia 13.3169
lfoot -22.3067 14.6107
ltoes -24.5306
170
root 13.6034 17.6295 -11.2952 6.49276 -49.1916 -1.87006
lowerback 4.98223 0.582782 -0.951329
upperback 1.34068 0.742921 1.73143
thorax -1.44986 0.366827 2.26772
lowerneck -6.176 -3.22949 -5.53866
upperneck 20.763 -4.35412 2.18616
head 7.56291 -2.39123 1.26816
rclavicle -5.57094e-014 -7.95139e-016
rhumerus -35.7879 -5.76012 -79.3691
rradius 27.8994
rwrist -1.64874
rhand -10.8174 16.4602
rfingers 7.12502
rthumb 15.1963 -12.9617
lclavicle -5.57094e-014 -7.95139e-016
lhumerus -34.441 -11.0428 87.0393
lradius 38.8522
lwrist 14.4412
lhand -4.71335 28.4159
lfingers 7.12502
lthumb 21.0688 57.2913
rfemur -29.9078 1.99138 22.0516
rtibia 27.9203
rfoot -10.0865 -13.2249
rtoes -8.78135
lfemur 9.26298 -5.42293 -23.8398
ltibia 14.0137
lfoot -22.1197 14.4534
ltoes -26.3387
171
root 13.5063 17.6368 -11.2542 6.48364 -49.1645 -2.02145
lowerback 5.02406 0.541401 -0.823898
upperback 1.3428 0.695192 1.83811
thorax -1.46863 0.342508 2.30865
lowerneck -6.17024 -3.18336 -5.51645
upperneck 20.897 -4.27511 2.06299
head 7.59985 -2.36514 1.23052
rclavicle -2.01766e-014 3.18055e-015
rhumerus -35.7619 -5.64275 -79.3568
rradius 27.9186
rwrist -1.62039
rhand -10.7262 16.4631
rfingers 7.12502
rthumb 15.2842 -12.9522
lclavicle -2.01766e-014 3.18055e-015
lhumerus -34.3569 -10.8223 87.1544
lradius 39.1438
lwrist 14.5145
lhand -4.86926 28.4402
lfingers 7.12502
lthumb 20.919 57.3322
rfemur -29.5995 1.81965 22.3479
rtibia 28.2589
rfoot -10.2533 -12.9063
rtoes -7.24533
lfemur 9.31126 -5.261 -23.5848
ltibia 14.7541
lfoot -21.9802 14.2457
ltoes -27.9168
172
root 13.4075 17.6443 -11.2124 6.4839 -49.1799 -2.14439
lowerback 4.9981 0.518735 -0.699934
upperback 1.35589 0.671743 1.92075
thorax -1.4392 0.329912 2.32575
lowerneck -6.19529 -3.151 -5.51329
upperneck 21.0338 -4.22084 1.99251
head 7.64591 -2.34735 1.21062
rclavicle 6.08778e-014 9.54166e-015
rhumerus -35.6661 -5.69981 -79.3315
rradius 27.8508
rwrist -1.4805
rhand -10.6702 16.3896
rfingers 7.12502
rthumb 15.3382 -13.0216
lclavicle 6.08778e-014 9.54166e-015
lhumerus -34.2588 -10.6132 87.2302
lradius 39.4747
lwrist 14.5466
lhand -4.73273 28.4617
lfingers 7.12502
lthumb 21.0502 57.3392
rfemur -29.3073 1.58419 22.65
rtibia 28.5778
rfoot -10.4639 -12.4196
rtoes -6.80956
lfemur 9.29671 -5.08571 -23.356
ltibia 15.5952
lfoot -21.838 14.0794
ltoes -29.02
173
root 13.3095 17.6516 -11.1697 6.46694 -49.1511 -2.20917
lowerback 4.92918 0.481846 -0.582537
upperback 1.35999 0.628715 1.97961
thorax -1.39395 0.307656 2.32344
lowerneck -6.24446 -3.13039 -5.54907
upperneck 21.2052 -4.19101 1.99048
head 7.71115 -2.33847 1.21698
rclavicle -1.10822e-014 -1.35174e-014
rhumerus -35.5741 -5.67003 -79.3564
rradius 27.7958
rwrist -1.46244
rhand -10.5342 16.3952
rfingers 7.12502
rthumb 15.4691 -13.0059
lclavicle -1.10822e-014 -1.35174e-014
lhumerus -34.1688 -10.429 87.2953
lradius 39.8283
lwrist 14.653
lhand -4.6217 28.5838
lfingers 7.12502
lthumb 21.1569 57.4494
rfemur -28.996 1.34913 22.8983
rtibia 28.8162
rfoot -10.6005 -11.9405
rtoes -5.31785
lfemur 9.15851 -4.8666 -23.1327
ltibia 16.6145
lfoot -21.5876 13.9421
ltoes -30.1675
174
root 13.2104 17.6602 -11.1292 6.46012 -49.1156 -2.22708
lowerback 4.85672 0.460665 -0.531802
upperback 1.31565 0.604458 2.04983
thorax -1.39817 0.295794 2.36904
lowerneck -6.27932 -3.11441 -5.60194
upperneck 21.4176 -4.16388 1.97
head 7.78779 -2.33477 1.21998
rclavicle -8.71671e-014 -4.37326e-015
rhumerus -35.5778 -5.53988 -79.3805
rradius 27.8175
rwrist -1.57243
rhand -10.5392 16.3292
rfingers 7.12502
rthumb 15.4643 -13.0722
lclavicle -8.71671e-014 -4.37326e-015
lhumerus -34.1801 -10.4213 87.4913
lradius 40.2109
lwrist 14.9278
lhand -4.77731 28.6049
lfingers 7.12502
lthumb 21.0074 57.4871
rfemur -28.7047 1.28848 23.0816
rtibia 28.9921
rfoot -10.7014 -11.7754
rtoes -4.30317
lfemur 8.85459 -4.58968 -22.8919
ltibia 17.7925
lfoot -21.2882 13.5803
ltoes -30.9262
